<mxfile host="app.diagrams.net" modified="2021-07-13T13:13:48.080Z" agent="5.0 (Windows NT 10.0; Win64; x64) AppleWebKit/537.36 (KHTML, like Gecko) Chrome/91.0.4472.124 Safari/537.36" etag="4CAGlZ-J--5z6AK9iW3d" version="14.8.6" type="github">
  <diagram id="UVBqLNgkZDK9Zj-Fu_bZ" name="Page-1">
    <mxGraphModel dx="868" dy="482" grid="0" gridSize="10" guides="1" tooltips="1" connect="1" arrows="1" fold="1" page="1" pageScale="1" pageWidth="850" pageHeight="1100" background="#FFFFFF" math="0" shadow="0">
      <root>
        <mxCell id="0" />
        <mxCell id="1" parent="0" />
        <mxCell id="OJ3cO_y0XRKBqMdnCYcS-22" style="edgeStyle=none;rounded=0;orthogonalLoop=1;jettySize=auto;html=1;exitX=0.5;exitY=1;exitDx=0;exitDy=0;entryX=0.5;entryY=0;entryDx=0;entryDy=0;strokeWidth=2;shadow=1;" edge="1" parent="1" source="OJ3cO_y0XRKBqMdnCYcS-1" target="OJ3cO_y0XRKBqMdnCYcS-3">
          <mxGeometry relative="1" as="geometry" />
        </mxCell>
        <mxCell id="OJ3cO_y0XRKBqMdnCYcS-24" style="edgeStyle=none;rounded=0;orthogonalLoop=1;jettySize=auto;html=1;exitX=0;exitY=1;exitDx=0;exitDy=0;entryX=1;entryY=0;entryDx=0;entryDy=0;strokeWidth=2;shadow=1;" edge="1" parent="1" source="OJ3cO_y0XRKBqMdnCYcS-1" target="OJ3cO_y0XRKBqMdnCYcS-2">
          <mxGeometry relative="1" as="geometry" />
        </mxCell>
        <mxCell id="OJ3cO_y0XRKBqMdnCYcS-30" style="edgeStyle=none;rounded=0;orthogonalLoop=1;jettySize=auto;html=1;exitX=1;exitY=0.5;exitDx=0;exitDy=0;entryX=0;entryY=0;entryDx=0;entryDy=0;strokeWidth=2;shadow=1;" edge="1" parent="1" source="OJ3cO_y0XRKBqMdnCYcS-1" target="OJ3cO_y0XRKBqMdnCYcS-4">
          <mxGeometry relative="1" as="geometry" />
        </mxCell>
        <mxCell id="OJ3cO_y0XRKBqMdnCYcS-1" value="&lt;font style=&quot;font-size: 14px&quot;&gt;&lt;b&gt;Vector&lt;/b&gt;&lt;/font&gt;" style="rounded=1;whiteSpace=wrap;html=1;strokeWidth=2;fillColor=#66B2FF;shadow=1;" vertex="1" parent="1">
          <mxGeometry x="440" y="116" width="90" height="40" as="geometry" />
        </mxCell>
        <mxCell id="OJ3cO_y0XRKBqMdnCYcS-18" style="edgeStyle=none;rounded=0;orthogonalLoop=1;jettySize=auto;html=1;exitX=0.5;exitY=1;exitDx=0;exitDy=0;strokeWidth=2;shadow=1;" edge="1" parent="1" source="OJ3cO_y0XRKBqMdnCYcS-2" target="OJ3cO_y0XRKBqMdnCYcS-9">
          <mxGeometry relative="1" as="geometry" />
        </mxCell>
        <mxCell id="OJ3cO_y0XRKBqMdnCYcS-25" style="edgeStyle=none;rounded=0;orthogonalLoop=1;jettySize=auto;html=1;exitX=0;exitY=0.5;exitDx=0;exitDy=0;entryX=1;entryY=0.5;entryDx=0;entryDy=0;strokeWidth=2;shadow=1;" edge="1" parent="1" source="OJ3cO_y0XRKBqMdnCYcS-2" target="OJ3cO_y0XRKBqMdnCYcS-10">
          <mxGeometry relative="1" as="geometry" />
        </mxCell>
        <mxCell id="OJ3cO_y0XRKBqMdnCYcS-26" style="edgeStyle=none;rounded=0;orthogonalLoop=1;jettySize=auto;html=1;exitX=0;exitY=1;exitDx=0;exitDy=0;entryX=0.75;entryY=0;entryDx=0;entryDy=0;strokeWidth=2;shadow=1;" edge="1" parent="1" source="OJ3cO_y0XRKBqMdnCYcS-2" target="OJ3cO_y0XRKBqMdnCYcS-6">
          <mxGeometry relative="1" as="geometry" />
        </mxCell>
        <mxCell id="OJ3cO_y0XRKBqMdnCYcS-2" value="&lt;font style=&quot;font-size: 14px&quot;&gt;&lt;b&gt;Ma trận&lt;/b&gt;&lt;/font&gt;" style="rounded=1;whiteSpace=wrap;html=1;strokeWidth=2;fillColor=#66B2FF;shadow=1;" vertex="1" parent="1">
          <mxGeometry x="306" y="202" width="90" height="40" as="geometry" />
        </mxCell>
        <mxCell id="OJ3cO_y0XRKBqMdnCYcS-19" style="edgeStyle=none;rounded=0;orthogonalLoop=1;jettySize=auto;html=1;exitX=0.5;exitY=1;exitDx=0;exitDy=0;entryX=0.75;entryY=0;entryDx=0;entryDy=0;strokeWidth=2;shadow=1;" edge="1" parent="1" source="OJ3cO_y0XRKBqMdnCYcS-3" target="OJ3cO_y0XRKBqMdnCYcS-9">
          <mxGeometry relative="1" as="geometry" />
        </mxCell>
        <mxCell id="OJ3cO_y0XRKBqMdnCYcS-3" value="&lt;font style=&quot;font-size: 14px&quot;&gt;&lt;b&gt;Không gian vector&lt;/b&gt;&lt;/font&gt;" style="rounded=1;whiteSpace=wrap;html=1;strokeWidth=2;fillColor=#66B2FF;shadow=1;" vertex="1" parent="1">
          <mxGeometry x="437" y="227" width="90" height="40" as="geometry" />
        </mxCell>
        <mxCell id="OJ3cO_y0XRKBqMdnCYcS-31" style="edgeStyle=none;rounded=0;orthogonalLoop=1;jettySize=auto;html=1;exitX=0.5;exitY=1;exitDx=0;exitDy=0;entryX=0.5;entryY=0;entryDx=0;entryDy=0;strokeWidth=2;shadow=1;" edge="1" parent="1" source="OJ3cO_y0XRKBqMdnCYcS-4" target="OJ3cO_y0XRKBqMdnCYcS-5">
          <mxGeometry relative="1" as="geometry" />
        </mxCell>
        <mxCell id="OJ3cO_y0XRKBqMdnCYcS-4" value="&lt;span style=&quot;font-size: 14px&quot;&gt;&lt;b&gt;Độc lập &lt;br&gt;tuyến tính&lt;/b&gt;&lt;/span&gt;" style="rounded=1;whiteSpace=wrap;html=1;strokeWidth=2;fillColor=#66B2FF;shadow=1;" vertex="1" parent="1">
          <mxGeometry x="740" y="220" width="100" height="40" as="geometry" />
        </mxCell>
        <mxCell id="OJ3cO_y0XRKBqMdnCYcS-16" style="edgeStyle=none;rounded=0;orthogonalLoop=1;jettySize=auto;html=1;exitX=0;exitY=1;exitDx=0;exitDy=0;strokeWidth=2;entryX=0.75;entryY=0;entryDx=0;entryDy=0;shadow=1;" edge="1" parent="1" source="OJ3cO_y0XRKBqMdnCYcS-5" target="OJ3cO_y0XRKBqMdnCYcS-13">
          <mxGeometry relative="1" as="geometry">
            <mxPoint x="590" y="480" as="targetPoint" />
          </mxGeometry>
        </mxCell>
        <mxCell id="OJ3cO_y0XRKBqMdnCYcS-5" value="&lt;font style=&quot;font-size: 14px&quot;&gt;&lt;b&gt;Cơ sở&lt;/b&gt;&lt;/font&gt;" style="rounded=1;whiteSpace=wrap;html=1;strokeWidth=2;fillColor=#66B2FF;shadow=1;" vertex="1" parent="1">
          <mxGeometry x="745" y="320" width="90" height="40" as="geometry" />
        </mxCell>
        <mxCell id="OJ3cO_y0XRKBqMdnCYcS-27" style="edgeStyle=none;rounded=0;orthogonalLoop=1;jettySize=auto;html=1;exitX=0.5;exitY=1;exitDx=0;exitDy=0;entryX=0.5;entryY=0;entryDx=0;entryDy=0;strokeWidth=2;shadow=1;" edge="1" parent="1" source="OJ3cO_y0XRKBqMdnCYcS-6" target="OJ3cO_y0XRKBqMdnCYcS-8">
          <mxGeometry relative="1" as="geometry" />
        </mxCell>
        <mxCell id="OJ3cO_y0XRKBqMdnCYcS-28" style="edgeStyle=none;rounded=0;orthogonalLoop=1;jettySize=auto;html=1;exitX=0.5;exitY=1;exitDx=0;exitDy=0;entryX=0.5;entryY=0;entryDx=0;entryDy=0;strokeWidth=2;shadow=1;" edge="1" parent="1" source="OJ3cO_y0XRKBqMdnCYcS-6" target="OJ3cO_y0XRKBqMdnCYcS-7">
          <mxGeometry relative="1" as="geometry" />
        </mxCell>
        <mxCell id="OJ3cO_y0XRKBqMdnCYcS-6" value="&lt;font style=&quot;font-size: 14px&quot;&gt;&lt;b&gt;Hệ phương trình tuyến tính&lt;/b&gt;&lt;/font&gt;" style="rounded=1;whiteSpace=wrap;html=1;strokeWidth=2;fillColor=#66B2FF;shadow=1;" vertex="1" parent="1">
          <mxGeometry x="90.5" y="324" width="129" height="32" as="geometry" />
        </mxCell>
        <mxCell id="OJ3cO_y0XRKBqMdnCYcS-7" value="&lt;span style=&quot;font-size: 14px&quot;&gt;&lt;b&gt;Ma trận nghịch đảo&lt;/b&gt;&lt;/span&gt;" style="rounded=1;whiteSpace=wrap;html=1;strokeWidth=2;fillColor=#66B2FF;shadow=1;" vertex="1" parent="1">
          <mxGeometry x="247" y="404" width="90" height="40" as="geometry" />
        </mxCell>
        <mxCell id="OJ3cO_y0XRKBqMdnCYcS-8" value="&lt;span style=&quot;font-size: 14px&quot;&gt;&lt;b&gt;Phép khử Gaussian&lt;/b&gt;&lt;/span&gt;" style="rounded=1;whiteSpace=wrap;html=1;strokeWidth=2;fillColor=#66B2FF;shadow=1;" vertex="1" parent="1">
          <mxGeometry x="110" y="428" width="90" height="40" as="geometry" />
        </mxCell>
        <mxCell id="OJ3cO_y0XRKBqMdnCYcS-15" style="rounded=0;orthogonalLoop=1;jettySize=auto;html=1;exitX=1;exitY=1;exitDx=0;exitDy=0;entryX=0.25;entryY=0;entryDx=0;entryDy=0;strokeWidth=2;shadow=1;" edge="1" parent="1" source="OJ3cO_y0XRKBqMdnCYcS-9" target="OJ3cO_y0XRKBqMdnCYcS-13">
          <mxGeometry relative="1" as="geometry" />
        </mxCell>
        <mxCell id="OJ3cO_y0XRKBqMdnCYcS-17" style="edgeStyle=none;rounded=0;orthogonalLoop=1;jettySize=auto;html=1;exitX=0.5;exitY=1;exitDx=0;exitDy=0;entryX=0.5;entryY=0;entryDx=0;entryDy=0;strokeWidth=2;shadow=1;" edge="1" parent="1" source="OJ3cO_y0XRKBqMdnCYcS-9" target="OJ3cO_y0XRKBqMdnCYcS-12">
          <mxGeometry relative="1" as="geometry" />
        </mxCell>
        <mxCell id="OJ3cO_y0XRKBqMdnCYcS-9" value="&lt;span style=&quot;font-size: 14px&quot;&gt;&lt;b&gt;Ánh xạ &lt;br&gt;tuyến tính/affine&lt;/b&gt;&lt;/span&gt;" style="rounded=1;whiteSpace=wrap;html=1;strokeWidth=2;fillColor=#66B2FF;shadow=1;" vertex="1" parent="1">
          <mxGeometry x="356" y="347" width="138" height="36" as="geometry" />
        </mxCell>
        <mxCell id="OJ3cO_y0XRKBqMdnCYcS-10" value="&lt;font style=&quot;font-size: 14px&quot;&gt;&lt;b&gt;Giải tích vector&lt;/b&gt;&lt;/font&gt;" style="rounded=1;whiteSpace=wrap;html=1;strokeWidth=2;fillColor=#33FF99;shadow=1;" vertex="1" parent="1">
          <mxGeometry x="100" y="200" width="110" height="40" as="geometry" />
        </mxCell>
        <mxCell id="OJ3cO_y0XRKBqMdnCYcS-12" value="&lt;font style=&quot;font-size: 14px&quot;&gt;&lt;b&gt;Hình học giải tích&lt;br&gt;&lt;/b&gt;&lt;/font&gt;" style="rounded=1;whiteSpace=wrap;html=1;strokeWidth=2;fillColor=#33FF99;shadow=1;" vertex="1" parent="1">
          <mxGeometry x="350" y="470" width="150" height="40" as="geometry" />
        </mxCell>
        <mxCell id="OJ3cO_y0XRKBqMdnCYcS-13" value="&lt;span style=&quot;font-size: 14px&quot;&gt;&lt;b&gt;Bài toán &lt;br&gt;phân lớp&lt;/b&gt;&lt;/span&gt;" style="rounded=1;whiteSpace=wrap;html=1;strokeWidth=2;fillColor=#33FF99;shadow=1;" vertex="1" parent="1">
          <mxGeometry x="527" y="470" width="110" height="40" as="geometry" />
        </mxCell>
        <mxCell id="OJ3cO_y0XRKBqMdnCYcS-21" style="edgeStyle=none;rounded=0;orthogonalLoop=1;jettySize=auto;html=1;exitX=0;exitY=0.5;exitDx=0;exitDy=0;entryX=1;entryY=0.5;entryDx=0;entryDy=0;strokeWidth=2;shadow=1;" edge="1" parent="1" source="OJ3cO_y0XRKBqMdnCYcS-20" target="OJ3cO_y0XRKBqMdnCYcS-3">
          <mxGeometry relative="1" as="geometry" />
        </mxCell>
        <mxCell id="OJ3cO_y0XRKBqMdnCYcS-20" value="&lt;font style=&quot;font-size: 14px&quot;&gt;&lt;b&gt;Nhóm&lt;br&gt;&lt;/b&gt;&lt;/font&gt;" style="rounded=1;whiteSpace=wrap;html=1;strokeWidth=2;fillColor=#66B2FF;shadow=1;" vertex="1" parent="1">
          <mxGeometry x="612" y="229" width="90" height="40" as="geometry" />
        </mxCell>
      </root>
    </mxGraphModel>
  </diagram>
</mxfile>
